<?xml version="1.0" encoding="UTF-8" standalone="no"?>
<!DOCTYPE svg PUBLIC "-//W3C//DTD SVG 1.1//EN"
 "http://www.w3.org/Graphics/SVG/1.1/DTD/svg11.dtd">
<!-- Generated by graphviz version 2.40.1 (20161225.0304)
 -->
<!-- Title: G Pages: 1 -->
<svg width="292pt" height="276pt"
 viewBox="0.00 0.00 292.00 276.00" xmlns="http://www.w3.org/2000/svg" xmlns:xlink="http://www.w3.org/1999/xlink">
<g id="graph0" class="graph" transform="scale(1 1) rotate(0) translate(4 272)">
<title>G</title>
<polygon fill="#ffffff" stroke="transparent" points="-4,4 -4,-272 288,-272 288,4 -4,4"/>
<g id="clust1" class="cluster">
<title>cluster_0</title>
<polygon fill="none" stroke="transparent" points="8,-33 8,-235 60,-235 60,-33 8,-33"/>
</g>
<g id="clust2" class="cluster">
<title>cluster_1</title>
<polygon fill="none" stroke="transparent" points="116,-8 116,-260 168,-260 168,-8 116,-8"/>
</g>
<g id="clust3" class="cluster">
<title>cluster_2</title>
<polygon fill="none" stroke="transparent" points="224,-58 224,-210 276,-210 276,-58 224,-58"/>
</g>
<!-- l10 -->
<g id="node1" class="node">
<title>l10</title>
<ellipse fill="#000000" stroke="#ffffff" stroke-width="5" cx="34" cy="-209" rx="18" ry="18"/>
</g>
<!-- l20 -->
<g id="node5" class="node">
<title>l20</title>
<ellipse fill="#c0c0c0" stroke="#ffffff" stroke-width="5" cx="142" cy="-84" rx="18" ry="18"/>
</g>
<!-- l10&#45;&gt;l20 -->
<g id="edge1" class="edge">
<title>l10&#45;&gt;l20</title>
<path fill="none" stroke="#000000" d="M45.9705,-195.1452C65.6761,-172.3378 104.9235,-126.9126 126.6457,-101.7712"/>
<polygon fill="#000000" stroke="#000000" points="128.0311,-102.8444 129.9758,-97.9168 125.3827,-100.5562 128.0311,-102.8444"/>
</g>
<!-- l21 -->
<g id="node6" class="node">
<title>l21</title>
<ellipse fill="#c0c0c0" stroke="#ffffff" stroke-width="5" cx="142" cy="-34" rx="18" ry="18"/>
</g>
<!-- l10&#45;&gt;l21 -->
<g id="edge2" class="edge">
<title>l10&#45;&gt;l21</title>
<path fill="none" stroke="#000000" d="M43.5843,-193.4699C63.1985,-161.6876 107.8972,-89.2592 129.6503,-54.0111"/>
<polygon fill="#000000" stroke="#000000" points="131.3005,-54.6693 132.4372,-49.4953 128.322,-52.8312 131.3005,-54.6693"/>
</g>
<!-- l22 -->
<g id="node7" class="node">
<title>l22</title>
<ellipse fill="#c0c0c0" stroke="#ffffff" stroke-width="5" cx="142" cy="-234" rx="18" ry="18"/>
</g>
<!-- l10&#45;&gt;l22 -->
<g id="edge3" class="edge">
<title>l10&#45;&gt;l22</title>
<path fill="none" stroke="#000000" d="M51.834,-213.1282C70.2813,-217.3985 99.1502,-224.0811 119.2343,-228.7302"/>
<polygon fill="#000000" stroke="#000000" points="118.8736,-230.4429 124.1395,-229.8656 119.663,-227.033 118.8736,-230.4429"/>
</g>
<!-- l23 -->
<g id="node8" class="node">
<title>l23</title>
<ellipse fill="#c0c0c0" stroke="#ffffff" stroke-width="5" cx="142" cy="-184" rx="18" ry="18"/>
</g>
<!-- l10&#45;&gt;l23 -->
<g id="edge4" class="edge">
<title>l10&#45;&gt;l23</title>
<path fill="none" stroke="#000000" d="M51.834,-204.8718C70.2813,-200.6015 99.1502,-193.9189 119.2343,-189.2698"/>
<polygon fill="#000000" stroke="#000000" points="119.663,-190.967 124.1395,-188.1344 118.8736,-187.5571 119.663,-190.967"/>
</g>
<!-- l24 -->
<g id="node9" class="node">
<title>l24</title>
<ellipse fill="#c0c0c0" stroke="#ffffff" stroke-width="5" cx="142" cy="-134" rx="18" ry="18"/>
</g>
<!-- l10&#45;&gt;l24 -->
<g id="edge5" class="edge">
<title>l10&#45;&gt;l24</title>
<path fill="none" stroke="#000000" d="M49.0169,-198.5716C68.2804,-185.1941 101.7159,-161.975 122.8069,-147.3285"/>
<polygon fill="#000000" stroke="#000000" points="124.0019,-148.6293 127.1106,-144.3399 122.0055,-145.7545 124.0019,-148.6293"/>
</g>
<!-- l11 -->
<g id="node2" class="node">
<title>l11</title>
<ellipse fill="#000000" stroke="#ffffff" stroke-width="5" cx="34" cy="-159" rx="18" ry="18"/>
</g>
<!-- l11&#45;&gt;l20 -->
<g id="edge6" class="edge">
<title>l11&#45;&gt;l20</title>
<path fill="none" stroke="#000000" d="M49.0169,-148.5716C68.2804,-135.1941 101.7159,-111.975 122.8069,-97.3285"/>
<polygon fill="#000000" stroke="#000000" points="124.0019,-98.6293 127.1106,-94.3399 122.0055,-95.7545 124.0019,-98.6293"/>
</g>
<!-- l11&#45;&gt;l21 -->
<g id="edge7" class="edge">
<title>l11&#45;&gt;l21</title>
<path fill="none" stroke="#000000" d="M45.9705,-145.1452C65.6761,-122.3378 104.9235,-76.9126 126.6457,-51.7712"/>
<polygon fill="#000000" stroke="#000000" points="128.0311,-52.8444 129.9758,-47.9168 125.3827,-50.5562 128.0311,-52.8444"/>
</g>
<!-- l11&#45;&gt;l22 -->
<g id="edge8" class="edge">
<title>l11&#45;&gt;l22</title>
<path fill="none" stroke="#000000" d="M49.0169,-169.4284C68.2804,-182.8059 101.7159,-206.025 122.8069,-220.6715"/>
<polygon fill="#000000" stroke="#000000" points="122.0055,-222.2455 127.1106,-223.6601 124.0019,-219.3707 122.0055,-222.2455"/>
</g>
<!-- l11&#45;&gt;l23 -->
<g id="edge9" class="edge">
<title>l11&#45;&gt;l23</title>
<path fill="none" stroke="#000000" d="M51.834,-163.1282C70.2813,-167.3985 99.1502,-174.0811 119.2343,-178.7302"/>
<polygon fill="#000000" stroke="#000000" points="118.8736,-180.4429 124.1395,-179.8656 119.663,-177.033 118.8736,-180.4429"/>
</g>
<!-- l11&#45;&gt;l24 -->
<g id="edge10" class="edge">
<title>l11&#45;&gt;l24</title>
<path fill="none" stroke="#000000" d="M51.834,-154.8718C70.2813,-150.6015 99.1502,-143.9189 119.2343,-139.2698"/>
<polygon fill="#000000" stroke="#000000" points="119.663,-140.967 124.1395,-138.1344 118.8736,-137.5571 119.663,-140.967"/>
</g>
<!-- l12 -->
<g id="node3" class="node">
<title>l12</title>
<ellipse fill="#000000" stroke="#ffffff" stroke-width="5" cx="34" cy="-109" rx="18" ry="18"/>
</g>
<!-- l12&#45;&gt;l20 -->
<g id="edge11" class="edge">
<title>l12&#45;&gt;l20</title>
<path fill="none" stroke="#000000" d="M51.834,-104.8718C70.2813,-100.6015 99.1502,-93.9189 119.2343,-89.2698"/>
<polygon fill="#000000" stroke="#000000" points="119.663,-90.967 124.1395,-88.1344 118.8736,-87.5571 119.663,-90.967"/>
</g>
<!-- l12&#45;&gt;l21 -->
<g id="edge12" class="edge">
<title>l12&#45;&gt;l21</title>
<path fill="none" stroke="#000000" d="M49.0169,-98.5716C68.2804,-85.1941 101.7159,-61.975 122.8069,-47.3285"/>
<polygon fill="#000000" stroke="#000000" points="124.0019,-48.6293 127.1106,-44.3399 122.0055,-45.7545 124.0019,-48.6293"/>
</g>
<!-- l12&#45;&gt;l22 -->
<g id="edge13" class="edge">
<title>l12&#45;&gt;l22</title>
<path fill="none" stroke="#000000" d="M45.9705,-122.8548C65.6761,-145.6622 104.9235,-191.0874 126.6457,-216.2288"/>
<polygon fill="#000000" stroke="#000000" points="125.3827,-217.4438 129.9758,-220.0832 128.0311,-215.1556 125.3827,-217.4438"/>
</g>
<!-- l12&#45;&gt;l23 -->
<g id="edge14" class="edge">
<title>l12&#45;&gt;l23</title>
<path fill="none" stroke="#000000" d="M49.0169,-119.4284C68.2804,-132.8059 101.7159,-156.025 122.8069,-170.6715"/>
<polygon fill="#000000" stroke="#000000" points="122.0055,-172.2455 127.1106,-173.6601 124.0019,-169.3707 122.0055,-172.2455"/>
</g>
<!-- l12&#45;&gt;l24 -->
<g id="edge15" class="edge">
<title>l12&#45;&gt;l24</title>
<path fill="none" stroke="#000000" d="M51.834,-113.1282C70.2813,-117.3985 99.1502,-124.0811 119.2343,-128.7302"/>
<polygon fill="#000000" stroke="#000000" points="118.8736,-130.4429 124.1395,-129.8656 119.663,-127.033 118.8736,-130.4429"/>
</g>
<!-- l13 -->
<g id="node4" class="node">
<title>l13</title>
<ellipse fill="#000000" stroke="#ffffff" stroke-width="5" cx="34" cy="-59" rx="18" ry="18"/>
</g>
<!-- l13&#45;&gt;l20 -->
<g id="edge16" class="edge">
<title>l13&#45;&gt;l20</title>
<path fill="none" stroke="#000000" d="M51.834,-63.1282C70.2813,-67.3985 99.1502,-74.0811 119.2343,-78.7302"/>
<polygon fill="#000000" stroke="#000000" points="118.8736,-80.4429 124.1395,-79.8656 119.663,-77.033 118.8736,-80.4429"/>
</g>
<!-- l13&#45;&gt;l21 -->
<g id="edge17" class="edge">
<title>l13&#45;&gt;l21</title>
<path fill="none" stroke="#000000" d="M51.834,-54.8718C70.2813,-50.6015 99.1502,-43.9189 119.2343,-39.2698"/>
<polygon fill="#000000" stroke="#000000" points="119.663,-40.967 124.1395,-38.1344 118.8736,-37.5571 119.663,-40.967"/>
</g>
<!-- l13&#45;&gt;l22 -->
<g id="edge18" class="edge">
<title>l13&#45;&gt;l22</title>
<path fill="none" stroke="#000000" d="M43.5843,-74.5301C63.1985,-106.3124 107.8972,-178.7408 129.6503,-213.9889"/>
<polygon fill="#000000" stroke="#000000" points="128.322,-215.1688 132.4372,-218.5047 131.3005,-213.3307 128.322,-215.1688"/>
</g>
<!-- l13&#45;&gt;l23 -->
<g id="edge19" class="edge">
<title>l13&#45;&gt;l23</title>
<path fill="none" stroke="#000000" d="M45.9705,-72.8548C65.6761,-95.6622 104.9235,-141.0874 126.6457,-166.2288"/>
<polygon fill="#000000" stroke="#000000" points="125.3827,-167.4438 129.9758,-170.0832 128.0311,-165.1556 125.3827,-167.4438"/>
</g>
<!-- l13&#45;&gt;l24 -->
<g id="edge20" class="edge">
<title>l13&#45;&gt;l24</title>
<path fill="none" stroke="#000000" d="M49.0169,-69.4284C68.2804,-82.8059 101.7159,-106.025 122.8069,-120.6715"/>
<polygon fill="#000000" stroke="#000000" points="122.0055,-122.2455 127.1106,-123.6601 124.0019,-119.3707 122.0055,-122.2455"/>
</g>
<!-- l30 -->
<g id="node10" class="node">
<title>l30</title>
<ellipse fill="#000000" stroke="#ffffff" stroke-width="5" cx="250" cy="-84" rx="18" ry="18"/>
</g>
<!-- l20&#45;&gt;l30 -->
<g id="edge21" class="edge">
<title>l20&#45;&gt;l30</title>
<path fill="none" stroke="#000000" d="M160.3207,-84C178.662,-84 206.943,-84 226.832,-84"/>
<polygon fill="#000000" stroke="#000000" points="226.9499,-85.7501 231.9498,-84 226.9498,-82.2501 226.9499,-85.7501"/>
</g>
<!-- l31 -->
<g id="node11" class="node">
<title>l31</title>
<ellipse fill="#000000" stroke="#ffffff" stroke-width="5" cx="250" cy="-184" rx="18" ry="18"/>
</g>
<!-- l20&#45;&gt;l31 -->
<g id="edge22" class="edge">
<title>l20&#45;&gt;l31</title>
<path fill="none" stroke="#000000" d="M155.2429,-96.262C174.7565,-114.3301 211.2461,-148.1168 232.8045,-168.0783"/>
<polygon fill="#000000" stroke="#000000" points="231.791,-169.5248 236.6488,-171.6377 234.1689,-166.9566 231.791,-169.5248"/>
</g>
<!-- l32 -->
<g id="node12" class="node">
<title>l32</title>
<ellipse fill="#000000" stroke="#ffffff" stroke-width="5" cx="250" cy="-134" rx="18" ry="18"/>
</g>
<!-- l20&#45;&gt;l32 -->
<g id="edge23" class="edge">
<title>l20&#45;&gt;l32</title>
<path fill="none" stroke="#000000" d="M158.4029,-91.5939C177.1954,-100.2942 208.0482,-114.5779 228.6873,-124.133"/>
<polygon fill="#000000" stroke="#000000" points="228.1702,-125.822 233.4428,-126.3346 229.6407,-122.6459 228.1702,-125.822"/>
</g>
<!-- l21&#45;&gt;l30 -->
<g id="edge24" class="edge">
<title>l21&#45;&gt;l30</title>
<path fill="none" stroke="#000000" d="M158.4029,-41.5939C177.1954,-50.2942 208.0482,-64.5779 228.6873,-74.133"/>
<polygon fill="#000000" stroke="#000000" points="228.1702,-75.822 233.4428,-76.3346 229.6407,-72.6459 228.1702,-75.822"/>
</g>
<!-- l21&#45;&gt;l31 -->
<g id="edge25" class="edge">
<title>l21&#45;&gt;l31</title>
<path fill="none" stroke="#000000" d="M152.5521,-48.6557C172.1808,-75.9178 214.2931,-134.4071 236.1693,-164.7907"/>
<polygon fill="#000000" stroke="#000000" points="234.9033,-166.0274 239.245,-169.0626 237.7437,-163.9823 234.9033,-166.0274"/>
</g>
<!-- l21&#45;&gt;l32 -->
<g id="edge26" class="edge">
<title>l21&#45;&gt;l32</title>
<path fill="none" stroke="#000000" d="M155.2429,-46.262C174.7565,-64.3301 211.2461,-98.1168 232.8045,-118.0783"/>
<polygon fill="#000000" stroke="#000000" points="231.791,-119.5248 236.6488,-121.6377 234.1689,-116.9566 231.791,-119.5248"/>
</g>
<!-- l22&#45;&gt;l30 -->
<g id="edge27" class="edge">
<title>l22&#45;&gt;l30</title>
<path fill="none" stroke="#000000" d="M152.5521,-219.3443C172.1808,-192.0822 214.2931,-133.5929 236.1693,-103.2093"/>
<polygon fill="#000000" stroke="#000000" points="237.7437,-104.0177 239.245,-98.9374 234.9033,-101.9726 237.7437,-104.0177"/>
</g>
<!-- l22&#45;&gt;l31 -->
<g id="edge28" class="edge">
<title>l22&#45;&gt;l31</title>
<path fill="none" stroke="#000000" d="M158.4029,-226.4061C177.1954,-217.7058 208.0482,-203.4221 228.6873,-193.867"/>
<polygon fill="#000000" stroke="#000000" points="229.6407,-195.3541 233.4428,-191.6654 228.1702,-192.178 229.6407,-195.3541"/>
</g>
<!-- l22&#45;&gt;l32 -->
<g id="edge29" class="edge">
<title>l22&#45;&gt;l32</title>
<path fill="none" stroke="#000000" d="M155.2429,-221.738C174.7565,-203.6699 211.2461,-169.8832 232.8045,-149.9217"/>
<polygon fill="#000000" stroke="#000000" points="234.1689,-151.0434 236.6488,-146.3623 231.791,-148.4752 234.1689,-151.0434"/>
</g>
<!-- l23&#45;&gt;l30 -->
<g id="edge30" class="edge">
<title>l23&#45;&gt;l30</title>
<path fill="none" stroke="#000000" d="M155.2429,-171.738C174.7565,-153.6699 211.2461,-119.8832 232.8045,-99.9217"/>
<polygon fill="#000000" stroke="#000000" points="234.1689,-101.0434 236.6488,-96.3623 231.791,-98.4752 234.1689,-101.0434"/>
</g>
<!-- l23&#45;&gt;l31 -->
<g id="edge31" class="edge">
<title>l23&#45;&gt;l31</title>
<path fill="none" stroke="#000000" d="M160.3207,-184C178.662,-184 206.943,-184 226.832,-184"/>
<polygon fill="#000000" stroke="#000000" points="226.9499,-185.7501 231.9498,-184 226.9498,-182.2501 226.9499,-185.7501"/>
</g>
<!-- l23&#45;&gt;l32 -->
<g id="edge32" class="edge">
<title>l23&#45;&gt;l32</title>
<path fill="none" stroke="#000000" d="M158.4029,-176.4061C177.1954,-167.7058 208.0482,-153.4221 228.6873,-143.867"/>
<polygon fill="#000000" stroke="#000000" points="229.6407,-145.3541 233.4428,-141.6654 228.1702,-142.178 229.6407,-145.3541"/>
</g>
<!-- l24&#45;&gt;l30 -->
<g id="edge33" class="edge">
<title>l24&#45;&gt;l30</title>
<path fill="none" stroke="#000000" d="M158.4029,-126.4061C177.1954,-117.7058 208.0482,-103.4221 228.6873,-93.867"/>
<polygon fill="#000000" stroke="#000000" points="229.6407,-95.3541 233.4428,-91.6654 228.1702,-92.178 229.6407,-95.3541"/>
</g>
<!-- l24&#45;&gt;l31 -->
<g id="edge34" class="edge">
<title>l24&#45;&gt;l31</title>
<path fill="none" stroke="#000000" d="M158.4029,-141.5939C177.1954,-150.2942 208.0482,-164.5779 228.6873,-174.133"/>
<polygon fill="#000000" stroke="#000000" points="228.1702,-175.822 233.4428,-176.3346 229.6407,-172.6459 228.1702,-175.822"/>
</g>
<!-- l24&#45;&gt;l32 -->
<g id="edge35" class="edge">
<title>l24&#45;&gt;l32</title>
<path fill="none" stroke="#000000" d="M160.3207,-134C178.662,-134 206.943,-134 226.832,-134"/>
<polygon fill="#000000" stroke="#000000" points="226.9499,-135.7501 231.9498,-134 226.9498,-132.2501 226.9499,-135.7501"/>
</g>
</g>
</svg>
